<?xml version="1.0" encoding="UTF-8" standalone="no"?>
<!DOCTYPE svg PUBLIC "-//W3C//DTD SVG 1.1//EN" "http://www.w3.org/Graphics/SVG/1.1/DTD/svg11.dtd">
<svg version="1.1" xmlns="http://www.w3.org/2000/svg" xmlns:xlink="http://www.w3.org/1999/xlink" preserveAspectRatio="xMidYMid meet" viewBox="0 0 640 640" width="646" height="646"><defs><path d="M475.66 417.91C481.79 417.91 486.77 414.34 486.77 409.93C486.77 405.53 481.8 401.95 475.66 401.95C459.83 401.95 404.43 401.95 396.51 401.95C390.38 401.95 385.41 405.53 385.41 409.93C385.41 414.34 390.38 417.91 396.51 417.91C404.43 417.91 467.75 417.91 475.66 417.91Z" id="b94MvES6U"></path><path d="M643.02 456.79C649.14 456.79 654.12 451.49 654.12 444.95C654.12 438.41 649.15 433.1 643.02 433.1C627.19 433.1 571.78 433.1 563.86 433.1C557.73 433.1 552.76 438.41 552.76 444.95C552.76 451.49 557.73 456.79 563.86 456.79C571.78 456.79 635.1 456.79 643.02 456.79Z" id="a9OQBAbXQp"></path><path d="M641.29 456.79C647.42 456.79 652.4 451.49 652.4 444.95C652.4 438.41 647.43 433.1 641.29 433.1C625.46 433.1 570.06 433.1 562.14 433.1C556.01 433.1 551.04 438.41 551.04 444.95C551.04 451.49 556.01 456.79 562.14 456.79C570.06 456.79 633.38 456.79 641.29 456.79Z" id="a3gGcdULi"></path><path d="M390.36 425.58C390.36 440.29 401.19 452.22 414.8 453.06C416.31 463.68 424.82 471.87 435.21 471.87C445.59 471.87 454.12 463.69 455.63 453.06C469.21 452.2 480.01 440.28 480.01 425.58C471.05 425.58 399.32 425.58 390.36 425.58Z" id="b2FH2d2pA"></path><path d="M384.99 40.76C385.67 44.36 391.07 73.18 391.74 76.79C393.35 85.33 401.14 90.88 409.16 89.17C417.19 87.46 422.38 79.14 420.77 70.59C420.1 66.99 414.7 38.17 414.02 34.57C412.42 26.01 404.63 20.46 396.6 22.18C388.58 23.89 383.39 32.2 384.99 40.76Z" id="b2eIIgbd1o"></path><linearGradient id="gradientd3RLutnh2S" gradientUnits="userSpaceOnUse" x1="411.03" y1="99.1" x2="400.02" y2="40.35"><stop style="stop-color: #84bcda;stop-opacity: 1" offset="0%"></stop><stop style="stop-color: #067bc2;stop-opacity: 1" offset="100%"></stop></linearGradient><path d="M323.43 67.98C318.62 60.93 309.38 59.34 302.75 64.48C296.15 69.6 294.67 79.47 299.47 86.53C300.82 88.51 307.56 98.43 319.7 116.26C324.65 120.6 328.65 122.78 331.71 122.78C334.71 122.78 337.76 121.8 340.39 119.76C346.99 114.64 348.47 104.77 343.67 97.71C341.64 94.74 325.45 70.96 323.43 67.98Z" id="a2vjuGyeHQ"></path><linearGradient id="gradientangKqIxlc" gradientUnits="userSpaceOnUse" x1="296.65" y1="53.92" x2="331.47" y2="106.19"><stop style="stop-color: #84bcda;stop-opacity: 1" offset="0%"></stop><stop style="stop-color: #067bc2;stop-opacity: 1" offset="100%"></stop></linearGradient><path d="M-122.98 114.07C-121.29 114.61 -119.59 114.88 -117.92 114.88C-111.02 114.88 -104.61 110.48 -102.36 103.57C-99.56 94.98 -104.26 85.75 -112.85 82.96C-120.09 80.6 -145.43 72.36 -149.05 71.18C-157.72 68.39 -166.87 73.09 -169.66 81.69C-172.46 90.27 -167.76 99.5 -159.17 102.3C-155.55 103.47 -126.6 112.89 -122.98 114.07Z" id="fj2ZCAEts"></path><path d="M623.07 225.8C624.65 225.5 626.1 224.96 627.44 224.2C632.95 221.06 636.2 214.4 635.05 207.49C633.62 198.9 625.93 193.18 617.88 194.71C611.1 196 587.37 200.49 583.97 201.13C575.93 202.68 570.57 210.86 571.99 219.44C573.42 228.03 581.11 233.75 589.16 232.23C592.55 231.59 619.68 226.45 623.07 225.8Z" id="geVOEzrye"></path><linearGradient id="gradientd3NDK74we4" gradientUnits="userSpaceOnUse" x1="648.12" y1="206.51" x2="587.29" y2="216.27"><stop style="stop-color: #84bcda;stop-opacity: 1" offset="0%"></stop><stop style="stop-color: #067bc2;stop-opacity: 1" offset="100%"></stop></linearGradient><path d="M387.54 355.21C387.54 357.73 387.54 370.37 387.54 393.1C397.34 393.1 475.79 393.1 485.6 393.1C485.6 370.97 485.6 358.68 485.6 356.22C495.8 338.07 508.98 317.19 520.9 301.07C535.23 281.68 543.79 257.28 543.79 230.69C543.79 167.69 495.92 116.62 436.88 116.62C377.81 116.62 329.94 167.69 329.94 230.69C329.94 257.27 338.51 281.67 352.82 301.05C365.36 318.02 377.24 336.56 387.54 355.21Z" id="a4r9UosNd"></path><radialGradient id="gradienta78tuB8YTA" gradientUnits="userSpaceOnUse" cx="436.87" cy="271.66" dx="436.87" dy="116.62" r="155.04"><stop style="stop-color: #011057;stop-opacity: 1" offset="0%"></stop><stop style="stop-color: #8faaf3;stop-opacity: 1" offset="100%"></stop></radialGradient><path d="M388.12 257.34L379.07 257.34L379.07 228.37L451.48 228.37L451.48 257.34L442.43 257.34L460.53 305.61L487.68 170.44L551.03 170.44L540.96 199.41L512 199.41L474.89 363.54L446.38 363.54L414.26 266.99L383.03 363.54L355.43 363.54L306.67 199.41L261.41 199.41L261.41 334.58L279.52 334.58L279.52 363.54L216.16 363.54L216.16 334.58L234.26 334.58L234.26 199.41L170.91 199.41L171.33 199.53L171.75 199.66L172.15 199.8L172.55 199.94L172.93 200.09L173.31 200.24L173.67 200.4L174.02 200.57L174.37 200.74L174.7 200.92L175.02 201.1L175.34 201.29L175.64 201.49L175.93 201.69L176.21 201.9L176.48 202.11L176.75 202.33L177 202.56L177.24 202.79L177.47 203.03L177.69 203.27L177.9 203.52L178.1 203.78L178.29 204.04L178.48 204.31L178.65 204.58L178.81 204.87L178.96 205.15L179.1 205.44L179.22 205.74L179.34 206.05L179.45 206.36L179.55 206.68L179.64 207L179.72 207.33L179.79 207.66L179.85 208L179.89 208.35L179.93 208.7L179.96 209.06L179.98 209.49L180 210.04L180.02 210.72L180.04 211.52L180.06 212.46L180.08 213.52L180.09 214.7L180.1 216.01L180.12 217.45L180.13 219.02L180.14 220.71L180.15 222.53L180.16 224.48L180.17 226.55L180.17 228.75L180.18 231.08L180.18 233.53L180.18 236.11L180.19 238.82L180.19 241.65L180.19 244.61L180.18 247.69L180.18 250.91L180.18 254.25L180.17 257.72L180.17 261.31L180.16 265.03L180.15 268.88L180.14 272.85L180.13 276.95L180.12 281.18L180.1 285.53L180.09 290.01L180.08 294.62L180.06 299.35L180.04 304.21L180.02 309.2L180 314.32L179.98 319.56L179.96 324.92L179.76 325.69L179.55 326.45L179.32 327.21L179.09 327.95L178.86 328.69L178.61 329.43L178.35 330.15L178.08 330.87L177.81 331.58L177.52 332.28L177.23 332.98L176.92 333.67L176.61 334.35L176.29 335.02L175.96 335.69L175.62 336.35L175.27 337L174.91 337.65L174.54 338.29L174.16 338.92L173.78 339.54L173.38 340.16L172.98 340.77L172.56 341.37L172.14 341.96L171.71 342.55L171.26 343.13L170.81 343.71L170.35 344.27L169.88 344.83L169.41 345.38L168.92 345.93L168.42 346.46L167.92 346.99L167.4 347.52L166.88 348.03L166.34 348.54L165.8 349.04L165.25 349.53L164.69 350.02L163.84 350.73L163 351.42L162.16 352.09L161.33 352.73L160.5 353.35L159.67 353.95L158.85 354.53L158.03 355.09L157.22 355.62L156.41 356.14L155.61 356.63L154.81 357.11L154.02 357.56L153.23 358L152.45 358.41L151.67 358.81L150.89 359.19L150.13 359.55L149.36 359.9L148.61 360.22L147.85 360.53L147.11 360.82L146.37 361.1L145.63 361.35L144.9 361.6L144.18 361.82L143.46 362.04L142.75 362.23L142.04 362.42L141.34 362.58L140.65 362.74L139.96 362.88L139.28 363.01L138.61 363.12L137.94 363.22L137.28 363.31L136.63 363.38L135.98 363.45L135.34 363.5L134.71 363.54L134.22 363.57L133.59 363.59L132.83 363.61L131.93 363.63L130.89 363.65L129.71 363.67L128.4 363.68L126.95 363.7L125.36 363.71L123.64 363.73L121.78 363.74L119.78 363.75L117.64 363.76L115.36 363.76L112.95 363.77L110.4 363.78L107.72 363.78L104.89 363.78L101.93 363.79L98.83 363.79L95.59 363.79L92.22 363.78L88.71 363.78L85.06 363.78L81.27 363.77L77.35 363.76L73.29 363.76L69.09 363.75L64.76 363.74L60.28 363.73L55.67 363.71L50.93 363.7L46.04 363.68L41.02 363.67L35.86 363.65L30.56 363.63L25.13 363.61L19.56 363.59L13.85 363.57L8 363.54L8 315.27L35.15 315.27L35.15 334.58L62.3 334.58L62.3 199.41L44.2 199.41L44.2 218.72L17.05 218.72L17.05 170.44L333.82 170.44L370.02 305.61L388.12 257.34ZM84.93 329.75L130.98 329.75L131.16 329.75L131.35 329.75L131.53 329.74L131.71 329.73L131.89 329.72L132.08 329.71L132.26 329.69L132.44 329.67L132.62 329.65L132.8 329.63L132.98 329.61L133.16 329.58L133.34 329.55L133.52 329.52L133.7 329.48L133.87 329.45L134.05 329.41L134.23 329.37L134.4 329.32L134.58 329.28L134.75 329.23L134.93 329.18L135.1 329.12L135.28 329.07L135.45 329.01L135.62 328.95L135.79 328.89L135.96 328.83L136.13 328.76L136.3 328.69L136.46 328.62L136.63 328.55L136.8 328.47L136.96 328.39L137.13 328.31L137.29 328.23L137.45 328.15L137.61 328.06L137.77 327.97L137.93 327.88L138.11 327.78L138.29 327.67L138.46 327.57L138.63 327.46L138.8 327.36L138.97 327.25L139.14 327.15L139.31 327.04L139.47 326.93L139.64 326.82L139.8 326.72L139.96 326.61L140.12 326.5L140.27 326.39L140.43 326.28L140.58 326.17L140.73 326.06L140.88 325.95L141.03 325.84L141.18 325.73L141.32 325.61L141.46 325.5L141.61 325.39L141.75 325.28L141.88 325.16L142.02 325.05L142.16 324.93L142.29 324.82L142.42 324.7L142.55 324.59L142.68 324.47L142.8 324.35L142.93 324.24L143.05 324.12L143.17 324L143.29 323.88L143.41 323.77L143.53 323.65L143.64 323.53L143.76 323.41L143.92 323.23L144.08 323.06L144.23 322.89L144.38 322.71L144.53 322.53L144.68 322.36L144.83 322.18L144.97 322L145.11 321.82L145.24 321.63L145.38 321.45L145.51 321.27L145.64 321.08L145.77 320.9L145.89 320.71L146.01 320.52L146.13 320.33L146.25 320.14L146.36 319.95L146.47 319.76L146.58 319.56L146.69 319.37L146.79 319.18L146.89 318.98L146.99 318.78L147.09 318.58L147.18 318.38L147.27 318.18L147.36 317.98L147.45 317.78L147.53 317.58L147.61 317.37L147.69 317.17L147.76 316.96L147.84 316.75L147.91 316.54L147.98 316.34L148.04 316.13L148.1 315.91L148.16 315.7L148.17 315.68L148.18 315.66L148.18 315.64L148.19 315.61L148.19 315.59L148.2 315.57L148.2 315.55L148.21 315.53L148.21 315.51L148.22 315.48L148.22 315.46L148.22 315.44L148.23 315.42L148.23 315.4L148.24 315.37L148.24 315.35L148.24 315.33L148.25 315.31L148.25 315.29L148.25 315.26L148.26 315.24L148.26 315.22L148.26 315.2L148.26 315.18L148.27 315.15L148.27 315.13L148.27 315.11L148.27 315.09L148.27 315.07L148.28 315.04L148.28 315.02L148.28 315L148.28 314.98L148.28 314.95L148.28 314.93L148.28 314.91L148.28 314.89L148.28 314.86L148.28 314.84L148.28 314.82L148.28 224.97L148.28 224.66L148.28 224.35L148.27 224.04L148.26 223.73L148.25 223.42L148.23 223.11L148.21 222.81L148.19 222.5L148.17 222.19L148.14 221.88L148.11 221.57L148.08 221.27L148.04 220.96L148.01 220.65L147.97 220.35L147.92 220.04L147.88 219.73L147.83 219.43L147.77 219.13L147.72 218.82L147.66 218.52L147.6 218.22L147.54 217.91L147.47 217.61L147.4 217.31L147.33 217.01L147.26 216.71L147.18 216.41L147.1 216.11L147.02 215.81L146.94 215.52L146.85 215.22L146.76 214.92L146.66 214.63L146.57 214.34L146.47 214.04L146.37 213.75L146.26 213.46L146.16 213.17L146.05 212.88L146 212.76L145.96 212.65L145.91 212.53L145.87 212.42L145.82 212.31L145.77 212.2L145.72 212.09L145.67 211.98L145.62 211.88L145.57 211.77L145.52 211.66L145.47 211.56L145.42 211.46L145.36 211.36L145.31 211.25L145.26 211.15L145.2 211.06L145.15 210.96L145.09 210.86L145.03 210.76L144.97 210.67L144.92 210.58L144.86 210.48L144.8 210.39L144.74 210.3L144.68 210.21L144.62 210.12L144.55 210.03L144.49 209.95L144.43 209.86L144.36 209.78L144.3 209.69L144.23 209.61L144.17 209.53L144.1 209.45L144.03 209.37L143.97 209.29L143.9 209.21L143.83 209.14L143.76 209.06L143.7 209L143.65 208.95L143.59 208.89L143.53 208.83L143.47 208.78L143.42 208.72L143.36 208.66L143.3 208.61L143.24 208.56L143.17 208.5L143.11 208.45L143.05 208.4L142.99 208.34L142.92 208.29L142.86 208.24L142.79 208.19L142.72 208.14L142.66 208.09L142.59 208.04L142.52 207.99L142.45 207.95L142.38 207.9L142.31 207.85L142.24 207.8L142.17 207.76L142.1 207.71L142.02 207.67L141.95 207.62L141.87 207.58L141.8 207.54L141.72 207.49L141.65 207.45L141.57 207.41L141.49 207.37L141.41 207.33L141.33 207.29L141.25 207.25L141.17 207.21L141.09 207.17L141.01 207.13L140.7 206.99L140.38 206.85L140.07 206.72L139.75 206.59L139.44 206.46L139.12 206.33L138.8 206.21L138.48 206.1L138.15 205.98L137.83 205.87L137.51 205.77L137.18 205.66L136.86 205.56L136.53 205.47L136.2 205.38L135.87 205.29L135.54 205.2L135.21 205.12L134.88 205.04L134.55 204.97L134.21 204.9L133.88 204.83L133.55 204.76L133.21 204.7L132.87 204.65L132.54 204.59L132.2 204.55L131.86 204.5L131.52 204.46L131.18 204.42L130.84 204.38L130.5 204.35L130.16 204.33L129.82 204.3L129.48 204.28L129.14 204.26L128.8 204.25L128.46 204.24L128.11 204.24L127.77 204.23L84.93 204.23L84.93 329.75Z" id="inh81ag9h"></path><mask id="maskduS8OAlJ" x="-2" y="160.44" width="563.03" height="213.34" maskUnits="userSpaceOnUse"><rect x="-2" y="160.44" width="563.03" height="213.34" fill="white"></rect><use xlink:href="#inh81ag9h" opacity="1" fill="black"></use></mask><path d="M569.98 100.73C567.31 103.04 545.9 121.55 543.22 123.86C536.88 129.36 535.89 139.3 541.05 146.07C545.2 151.52 552.04 153.27 557.86 150.89C559.28 150.3 560.62 149.47 561.87 148.41C564.54 146.09 585.94 127.58 588.62 125.26C594.97 119.77 595.94 109.82 590.8 103.05C585.64 96.29 576.29 95.26 569.98 100.73Z" id="f5fwzFrAKw"></path><linearGradient id="gradiente1Pg9EWRFP" gradientUnits="userSpaceOnUse" x1="595.86" y1="94.13" x2="556.2" y2="135.41"><stop style="stop-color: #84bcda;stop-opacity: 1" offset="0%"></stop><stop style="stop-color: #067bc2;stop-opacity: 1" offset="100%"></stop></linearGradient><path d="M495.2 89.51C496.67 86.18 508.36 59.57 509.82 56.25C513.29 48.35 510.1 38.94 502.7 35.25C495.26 31.53 486.49 34.94 483.01 42.85C480.09 49.5 469.85 72.79 468.39 76.12C464.92 84.01 468.12 93.41 475.51 97.11C478.46 98.58 481.62 98.93 484.58 98.32C489.07 97.4 493.11 94.27 495.2 89.51Z" id="fXoHyed83"></path><linearGradient id="gradientcK7Pn7UW1" gradientUnits="userSpaceOnUse" x1="516.01" y1="15.61" x2="483.53" y2="83.18"><stop style="stop-color: #84bcda;stop-opacity: 1" offset="0%"></stop><stop style="stop-color: #067bc2;stop-opacity: 1" offset="100%"></stop></linearGradient><path d="M-82.98 154.07C-81.29 154.61 -79.59 154.88 -77.92 154.88C-71.02 154.88 -64.61 150.48 -62.36 143.57C-59.56 134.98 -64.26 125.75 -72.85 122.96C-80.09 120.6 -105.43 112.36 -109.05 111.18C-117.72 108.39 -126.87 113.09 -129.66 121.69C-132.46 130.27 -127.76 139.5 -119.17 142.3C-115.55 143.47 -86.6 152.89 -82.98 154.07Z" id="jA77j6yL1"></path><path d="M604.72 331.34C606.2 331.99 607.69 332.37 609.21 332.5C615.43 333.03 621.53 329.28 624.06 322.8C627.19 314.74 623.6 305.5 616.05 302.16C609.68 299.35 587.42 289.5 584.23 288.09C576.67 284.76 568.03 288.58 564.9 296.62C561.76 304.69 565.35 313.92 572.9 317.27C576.08 318.67 601.54 329.94 604.72 331.34Z" id="c5OQF3gly"></path><linearGradient id="gradienta4iznSLBE" gradientUnits="userSpaceOnUse" x1="635.56" y1="329.49" x2="579.39" y2="302.75"><stop style="stop-color: #84bcda;stop-opacity: 1" offset="0%"></stop><stop style="stop-color: #067bc2;stop-opacity: 1" offset="100%"></stop></linearGradient><path d="M546.58 400.87C547.54 402.19 548.64 403.26 549.88 404.13C554.97 407.68 561.92 407.36 567.07 402.83C573.46 397.19 574.65 387.18 569.72 380.46C565.57 374.8 551.05 354.99 548.98 352.16C544.03 345.45 534.87 344.57 528.49 350.19C522.08 355.83 520.9 365.84 525.82 372.57C527.9 375.39 544.5 398.04 546.58 400.87Z" id="a7v6JR6p2"></path><linearGradient id="gradienta5SklNkwX" gradientUnits="userSpaceOnUse" x1="573.83" y1="414.49" x2="538.07" y2="362.83"><stop style="stop-color: #84bcda;stop-opacity: 1" offset="0%"></stop><stop style="stop-color: #067bc2;stop-opacity: 1" offset="100%"></stop></linearGradient></defs><g><g><use xlink:href="#b94MvES6U" opacity="1" fill="#575d70" fill-opacity="1"></use><g><use xlink:href="#b94MvES6U" opacity="1" fill-opacity="0" stroke="#000000" stroke-width="1" stroke-opacity="0"></use></g></g><g><use xlink:href="#a9OQBAbXQp" opacity="1" fill="#575d70" fill-opacity="0"></use><g><use xlink:href="#a9OQBAbXQp" opacity="1" fill-opacity="0" stroke="#000000" stroke-width="1" stroke-opacity="0"></use></g></g><g><use xlink:href="#a3gGcdULi" opacity="1" fill="#000000" fill-opacity="0"></use><g><use xlink:href="#a3gGcdULi" opacity="1" fill-opacity="0" stroke="#000000" stroke-width="1" stroke-opacity="0"></use></g></g><g><use xlink:href="#b2FH2d2pA" opacity="1" fill="#575d70" fill-opacity="1"></use><g><use xlink:href="#b2FH2d2pA" opacity="1" fill-opacity="0" stroke="#000000" stroke-width="1" stroke-opacity="0"></use></g></g><g><use xlink:href="#b2eIIgbd1o" opacity="1" fill="url(#gradientd3RLutnh2S)"></use><g><use xlink:href="#b2eIIgbd1o" opacity="1" fill-opacity="0" stroke="#000000" stroke-width="1" stroke-opacity="0"></use></g></g><g><use xlink:href="#a2vjuGyeHQ" opacity="1" fill="url(#gradientangKqIxlc)"></use><g><use xlink:href="#a2vjuGyeHQ" opacity="1" fill-opacity="0" stroke="#000000" stroke-width="1" stroke-opacity="0"></use></g></g><g><use xlink:href="#fj2ZCAEts" opacity="1" fill="#000000" fill-opacity="0"></use><g><use xlink:href="#fj2ZCAEts" opacity="1" fill-opacity="0" stroke="#000000" stroke-width="1" stroke-opacity="0"></use></g></g><g><use xlink:href="#geVOEzrye" opacity="1" fill="url(#gradientd3NDK74we4)"></use><g><use xlink:href="#geVOEzrye" opacity="1" fill-opacity="0" stroke="#000000" stroke-width="1" stroke-opacity="0"></use></g></g><g><use xlink:href="#a4r9UosNd" opacity="1" fill="url(#gradienta78tuB8YTA)"></use><g><use xlink:href="#a4r9UosNd" opacity="1" fill-opacity="0" stroke="#000000" stroke-width="1" stroke-opacity="0"></use></g></g><g><g><filter id="shadow7001149" x="-5" y="157.44" width="574.03" height="224.34" filterUnits="userSpaceOnUse" primitiveUnits="userSpaceOnUse"><feFlood></feFlood><feComposite in2="SourceAlpha" operator="in"></feComposite><feGaussianBlur stdDeviation="1"></feGaussianBlur><feOffset dx="5" dy="5" result="afterOffset"></feOffset><feFlood flood-color="#ffffff" flood-opacity="1"></feFlood><feComposite in2="afterOffset" operator="in"></feComposite><feMorphology operator="dilate" radius="1"></feMorphology><feComposite in2="SourceAlpha" operator="out"></feComposite></filter><path d="M388.12 257.34L379.07 257.34L379.07 228.37L451.48 228.37L451.48 257.34L442.43 257.34L460.53 305.61L487.68 170.44L551.03 170.44L540.96 199.41L512 199.41L474.89 363.54L446.38 363.54L414.26 266.99L383.03 363.54L355.43 363.54L306.67 199.41L261.41 199.41L261.41 334.58L279.52 334.58L279.52 363.54L216.16 363.54L216.16 334.58L234.26 334.58L234.26 199.41L170.91 199.41L171.33 199.53L171.75 199.66L172.15 199.8L172.55 199.94L172.93 200.09L173.31 200.24L173.67 200.4L174.02 200.57L174.37 200.74L174.7 200.92L175.02 201.1L175.34 201.29L175.64 201.49L175.93 201.69L176.21 201.9L176.48 202.11L176.75 202.33L177 202.56L177.24 202.79L177.47 203.03L177.69 203.27L177.9 203.52L178.1 203.78L178.29 204.04L178.48 204.31L178.65 204.58L178.81 204.87L178.96 205.15L179.1 205.44L179.22 205.74L179.34 206.05L179.45 206.36L179.55 206.68L179.64 207L179.72 207.33L179.79 207.66L179.85 208L179.89 208.35L179.93 208.7L179.96 209.06L179.98 209.49L180 210.04L180.02 210.72L180.04 211.52L180.06 212.46L180.08 213.52L180.09 214.7L180.1 216.01L180.12 217.45L180.13 219.02L180.14 220.71L180.15 222.53L180.16 224.48L180.17 226.55L180.17 228.75L180.18 231.08L180.18 233.53L180.18 236.11L180.19 238.82L180.19 241.65L180.19 244.61L180.18 247.69L180.18 250.91L180.18 254.25L180.17 257.72L180.17 261.31L180.16 265.03L180.15 268.88L180.14 272.85L180.13 276.95L180.12 281.18L180.1 285.53L180.09 290.01L180.08 294.62L180.06 299.35L180.04 304.21L180.02 309.2L180 314.32L179.98 319.56L179.96 324.92L179.76 325.69L179.55 326.45L179.32 327.21L179.09 327.95L178.86 328.69L178.61 329.43L178.35 330.15L178.08 330.87L177.81 331.58L177.52 332.28L177.23 332.98L176.92 333.67L176.61 334.35L176.29 335.02L175.96 335.69L175.62 336.35L175.27 337L174.91 337.65L174.54 338.29L174.16 338.92L173.78 339.54L173.38 340.16L172.98 340.77L172.56 341.37L172.14 341.96L171.71 342.55L171.26 343.13L170.81 343.71L170.35 344.27L169.88 344.83L169.41 345.38L168.92 345.93L168.42 346.46L167.92 346.99L167.4 347.52L166.88 348.03L166.34 348.54L165.8 349.04L165.25 349.53L164.69 350.02L163.84 350.73L163 351.42L162.16 352.09L161.33 352.73L160.5 353.35L159.67 353.95L158.85 354.53L158.03 355.09L157.22 355.62L156.41 356.14L155.61 356.63L154.81 357.11L154.02 357.56L153.23 358L152.45 358.41L151.67 358.81L150.89 359.19L150.13 359.55L149.36 359.9L148.61 360.22L147.85 360.53L147.11 360.82L146.37 361.1L145.63 361.35L144.9 361.6L144.18 361.82L143.46 362.04L142.75 362.23L142.04 362.42L141.34 362.58L140.65 362.74L139.96 362.88L139.28 363.01L138.61 363.12L137.94 363.22L137.28 363.31L136.63 363.38L135.98 363.45L135.34 363.5L134.71 363.54L134.22 363.57L133.59 363.59L132.83 363.61L131.93 363.63L130.89 363.65L129.71 363.67L128.4 363.68L126.95 363.7L125.36 363.71L123.64 363.73L121.78 363.74L119.78 363.75L117.64 363.76L115.36 363.76L112.95 363.77L110.4 363.78L107.72 363.78L104.89 363.78L101.93 363.79L98.83 363.79L95.59 363.79L92.22 363.78L88.71 363.78L85.06 363.78L81.27 363.77L77.35 363.76L73.29 363.76L69.09 363.75L64.76 363.74L60.28 363.73L55.67 363.71L50.93 363.7L46.04 363.68L41.02 363.67L35.86 363.65L30.56 363.63L25.13 363.61L19.56 363.59L13.85 363.57L8 363.54L8 315.27L35.15 315.27L35.15 334.58L62.3 334.58L62.3 199.41L44.2 199.41L44.2 218.72L17.05 218.72L17.05 170.44L333.82 170.44L370.02 305.61L388.12 257.34ZM84.93 329.75L130.98 329.75L131.16 329.75L131.35 329.75L131.53 329.74L131.71 329.73L131.89 329.72L132.08 329.71L132.26 329.69L132.44 329.67L132.62 329.65L132.8 329.63L132.98 329.61L133.16 329.58L133.34 329.55L133.52 329.52L133.7 329.48L133.87 329.45L134.05 329.41L134.23 329.37L134.4 329.32L134.58 329.28L134.75 329.23L134.93 329.18L135.1 329.12L135.28 329.07L135.45 329.01L135.62 328.95L135.79 328.89L135.96 328.83L136.13 328.76L136.3 328.69L136.46 328.62L136.63 328.55L136.8 328.47L136.96 328.39L137.13 328.31L137.29 328.23L137.45 328.15L137.61 328.06L137.77 327.97L137.93 327.88L138.11 327.78L138.29 327.67L138.46 327.57L138.63 327.46L138.8 327.36L138.97 327.25L139.14 327.15L139.31 327.04L139.47 326.93L139.64 326.82L139.8 326.72L139.96 326.61L140.12 326.5L140.27 326.39L140.43 326.28L140.58 326.17L140.73 326.06L140.88 325.95L141.03 325.84L141.18 325.73L141.32 325.61L141.46 325.5L141.61 325.39L141.75 325.28L141.88 325.16L142.02 325.05L142.16 324.93L142.29 324.82L142.42 324.7L142.55 324.59L142.68 324.47L142.8 324.35L142.93 324.24L143.05 324.12L143.17 324L143.29 323.88L143.41 323.77L143.53 323.65L143.64 323.53L143.76 323.41L143.92 323.23L144.08 323.06L144.23 322.89L144.38 322.71L144.53 322.53L144.68 322.36L144.83 322.18L144.97 322L145.11 321.82L145.24 321.63L145.38 321.45L145.51 321.27L145.64 321.08L145.77 320.9L145.89 320.71L146.01 320.52L146.13 320.33L146.25 320.14L146.36 319.95L146.47 319.76L146.58 319.56L146.69 319.37L146.79 319.18L146.89 318.98L146.99 318.78L147.09 318.58L147.18 318.38L147.27 318.18L147.36 317.98L147.45 317.78L147.53 317.58L147.61 317.37L147.69 317.17L147.76 316.96L147.84 316.75L147.91 316.54L147.98 316.34L148.04 316.13L148.1 315.91L148.16 315.7L148.17 315.68L148.18 315.66L148.18 315.64L148.19 315.61L148.19 315.59L148.2 315.57L148.2 315.55L148.21 315.53L148.21 315.51L148.22 315.48L148.22 315.46L148.22 315.44L148.23 315.42L148.23 315.4L148.24 315.37L148.24 315.35L148.24 315.33L148.25 315.31L148.25 315.29L148.25 315.26L148.26 315.24L148.26 315.22L148.26 315.2L148.26 315.18L148.27 315.15L148.27 315.13L148.27 315.11L148.27 315.09L148.27 315.07L148.28 315.04L148.28 315.02L148.28 315L148.28 314.98L148.28 314.95L148.28 314.93L148.28 314.91L148.28 314.89L148.28 314.86L148.28 314.84L148.28 314.82L148.28 224.97L148.28 224.66L148.28 224.35L148.27 224.04L148.26 223.73L148.25 223.42L148.23 223.11L148.21 222.81L148.19 222.5L148.17 222.19L148.14 221.88L148.11 221.57L148.08 221.27L148.04 220.96L148.01 220.65L147.97 220.35L147.92 220.04L147.88 219.73L147.83 219.43L147.77 219.13L147.72 218.82L147.66 218.52L147.6 218.22L147.54 217.91L147.47 217.61L147.4 217.31L147.33 217.01L147.26 216.71L147.18 216.41L147.1 216.11L147.02 215.81L146.94 215.52L146.85 215.22L146.76 214.92L146.66 214.63L146.57 214.34L146.47 214.04L146.37 213.75L146.26 213.46L146.16 213.17L146.05 212.88L146 212.76L145.96 212.65L145.91 212.53L145.87 212.42L145.82 212.31L145.77 212.2L145.72 212.09L145.67 211.98L145.62 211.88L145.57 211.77L145.52 211.66L145.47 211.56L145.42 211.46L145.36 211.36L145.31 211.25L145.26 211.15L145.2 211.06L145.15 210.96L145.09 210.86L145.03 210.76L144.97 210.67L144.92 210.58L144.86 210.48L144.8 210.39L144.74 210.3L144.68 210.21L144.62 210.12L144.55 210.03L144.49 209.95L144.43 209.86L144.36 209.78L144.3 209.69L144.23 209.61L144.17 209.53L144.1 209.45L144.03 209.37L143.97 209.29L143.9 209.21L143.83 209.14L143.76 209.06L143.7 209L143.65 208.95L143.59 208.89L143.53 208.83L143.47 208.78L143.42 208.72L143.36 208.66L143.3 208.61L143.24 208.56L143.17 208.5L143.11 208.45L143.05 208.4L142.99 208.34L142.92 208.29L142.86 208.24L142.79 208.19L142.72 208.14L142.66 208.09L142.59 208.04L142.52 207.99L142.45 207.95L142.38 207.9L142.31 207.85L142.24 207.8L142.17 207.76L142.1 207.71L142.02 207.67L141.95 207.62L141.87 207.58L141.8 207.54L141.72 207.49L141.65 207.45L141.57 207.41L141.49 207.37L141.41 207.33L141.33 207.29L141.25 207.25L141.17 207.21L141.09 207.17L141.01 207.13L140.7 206.99L140.38 206.85L140.07 206.72L139.75 206.59L139.44 206.46L139.12 206.33L138.8 206.21L138.48 206.1L138.15 205.98L137.83 205.87L137.51 205.77L137.18 205.66L136.86 205.56L136.53 205.47L136.2 205.38L135.87 205.29L135.54 205.2L135.21 205.12L134.88 205.04L134.55 204.97L134.21 204.9L133.88 204.83L133.55 204.76L133.21 204.7L132.87 204.65L132.54 204.59L132.2 204.55L131.86 204.5L131.52 204.46L131.18 204.42L130.84 204.38L130.5 204.35L130.16 204.33L129.82 204.3L129.48 204.28L129.14 204.26L128.8 204.25L128.46 204.24L128.11 204.24L127.77 204.23L84.93 204.23L84.93 329.75Z" id="a12W8k8To" fill="white" fill-opacity="1" filter="url(#shadow7001149)"></path></g><use xlink:href="#inh81ag9h" opacity="1" fill="#b9b7db" fill-opacity="1"></use><g mask="url(#maskduS8OAlJ)"><use xlink:href="#inh81ag9h" opacity="1" fill-opacity="0" stroke="#575d70" stroke-width="10" stroke-opacity="1"></use></g></g><g><use xlink:href="#f5fwzFrAKw" opacity="1" fill="url(#gradiente1Pg9EWRFP)"></use><g><use xlink:href="#f5fwzFrAKw" opacity="1" fill-opacity="0" stroke="#000000" stroke-width="1" stroke-opacity="0"></use></g></g><g><use xlink:href="#fXoHyed83" opacity="1" fill="url(#gradientcK7Pn7UW1)"></use><g><use xlink:href="#fXoHyed83" opacity="1" fill-opacity="0" stroke="#000000" stroke-width="1" stroke-opacity="0"></use></g></g><g><use xlink:href="#jA77j6yL1" opacity="1" fill="#000000" fill-opacity="0"></use><g><use xlink:href="#jA77j6yL1" opacity="1" fill-opacity="0" stroke="#000000" stroke-width="1" stroke-opacity="0"></use></g></g><g><use xlink:href="#c5OQF3gly" opacity="1" fill="url(#gradienta4iznSLBE)"></use><g><use xlink:href="#c5OQF3gly" opacity="1" fill-opacity="0" stroke="#000000" stroke-width="1" stroke-opacity="0"></use></g></g><g><use xlink:href="#a7v6JR6p2" opacity="1" fill="url(#gradienta5SklNkwX)"></use><g><use xlink:href="#a7v6JR6p2" opacity="1" fill-opacity="0" stroke="#000000" stroke-width="1" stroke-opacity="0"></use></g></g></g></svg>